<?xml version="1.0" standalone="no"?>
<!DOCTYPE svg PUBLIC "-//W3C//DTD SVG 20010904//EN"
 "http://www.w3.org/TR/2001/REC-SVG-20010904/DTD/svg10.dtd">
<svg version="1.0" xmlns="http://www.w3.org/2000/svg"
 width="768.000000pt" height="768.000000pt" viewBox="0 0 768.000000 768.000000"
 preserveAspectRatio="xMidYMid meet">
<metadata>
Created by potrace 1.14, written by Peter Selinger 2001-2017
</metadata>
<g transform="translate(0.000000,768.000000) scale(0.100000,-0.100000)"
fill="#000000" stroke="none">
<path d="M2189 6556 c-2 -2 -38 -7 -78 -10 -41 -4 -77 -9 -80 -10 -4 -2 -30
-7 -60 -10 -29 -4 -57 -8 -61 -11 -4 -2 -25 -7 -46 -10 -21 -3 -84 -19 -139
-35 -55 -17 -107 -32 -115 -34 -37 -9 -230 -90 -289 -121 -36 -19 -71 -35 -78
-35 -7 0 -13 -4 -13 -9 0 -5 -15 -14 -32 -22 -18 -7 -35 -16 -38 -19 -3 -4
-27 -20 -54 -35 -59 -34 -245 -173 -300 -224 -79 -73 -205 -202 -243 -248 -21
-26 -43 -54 -50 -61 -26 -27 -133 -181 -133 -190 0 -6 -4 -12 -8 -14 -25 -10
-172 -302 -226 -448 -36 -100 -72 -216 -80 -263 -3 -15 -7 -35 -10 -45 -7 -21
-13 -58 -27 -147 -6 -38 -13 -81 -17 -95 -3 -14 -8 -764 -9 -1668 l-4 -1642
672 2 671 3 0 606 c0 333 3 611 7 617 4 6 22 14 41 16 19 3 46 8 60 11 14 3
37 7 51 10 15 3 96 18 180 35 85 17 168 33 184 35 17 3 55 11 85 17 30 6 60
12 65 13 6 0 30 4 55 9 25 5 53 10 63 12 10 2 26 5 35 8 9 3 37 8 62 11 24 4
47 8 50 10 3 2 25 6 50 10 25 4 47 8 50 10 3 2 23 6 45 9 22 4 110 20 195 37
85 17 166 32 180 35 14 2 36 7 50 9 14 3 36 7 50 10 14 3 50 10 80 16 30 5 66
12 80 15 14 2 36 7 50 9 14 3 34 7 45 9 11 2 61 12 110 21 50 9 100 19 111 21
l22 4 -2 -815 -1 -815 673 0 672 0 1 233 c1 127 0 237 -1 242 -1 6 -1 39 0 75
1 36 2 72 2 80 -2 92 -1 1254 1 1257 4 4 195 43 282 58 11 1 58 10 105 20 47
9 96 18 110 21 14 2 39 7 55 11 40 9 33 8 90 18 28 5 52 9 55 10 3 1 25 5 50
9 25 5 54 10 65 13 11 2 31 6 45 9 14 2 36 7 50 9 64 13 77 16 105 20 25 5 66
13 98 21 4 1 16 2 28 3 11 0 18 5 15 10 -3 5 -8 26 -11 46 -2 21 -7 45 -10 55
-3 10 -7 31 -9 46 -2 16 -7 40 -10 54 -6 25 -12 57 -22 115 -3 17 -19 95 -35
175 -16 80 -31 159 -34 175 -2 17 -7 44 -10 60 -3 17 -15 73 -25 125 -11 52
-22 111 -25 130 -3 19 -8 42 -10 50 -2 8 -6 32 -10 54 -3 21 -7 42 -10 46 -2
4 -7 27 -9 51 -5 38 -17 92 -28 117 -4 10 -25 7 -233 -34 -99 -19 -196 -37
-215 -40 -19 -3 -37 -7 -40 -9 -3 -2 -26 -6 -50 -10 -25 -3 -65 -11 -90 -17
-25 -5 -58 -11 -74 -13 -15 -3 -35 -6 -45 -9 -9 -3 -34 -8 -57 -11 -22 -3 -55
-10 -72 -15 -27 -7 -32 -6 -33 8 -4 91 -65 400 -89 457 -4 11 -23 63 -40 115
-18 52 -57 146 -86 207 -30 62 -54 117 -54 123 0 5 -4 10 -10 10 -5 0 -12 11
-16 25 -3 14 -10 25 -15 25 -5 0 -9 5 -9 11 0 10 -135 216 -149 229 -3 3 -33
39 -66 80 -63 79 -212 231 -284 290 -24 19 -57 47 -74 62 -18 15 -82 60 -142
100 -141 93 -140 92 -205 126 -30 16 -64 34 -75 40 -58 34 -285 121 -385 149
-106 29 -125 34 -175 43 -27 5 -61 11 -75 14 -28 5 -89 15 -135 22 -37 5 -451
14 -456 10z m346 -1350 c22 -4 65 -14 95 -22 30 -9 60 -18 65 -19 46 -13 71
-24 145 -62 134 -70 252 -167 332 -271 23 -31 45 -59 48 -62 10 -10 41 -65 75
-132 60 -121 94 -254 100 -400 3 -75 2 -88 -13 -92 -18 -6 -172 -36 -207 -41
-11 -2 -90 -17 -175 -34 -85 -17 -166 -32 -180 -35 -14 -3 -50 -10 -80 -16
-30 -6 -68 -13 -85 -16 -16 -3 -61 -11 -100 -19 -74 -15 -107 -22 -152 -30
-16 -3 -63 -12 -106 -21 -42 -8 -90 -17 -105 -20 -15 -2 -38 -7 -52 -9 -14 -3
-36 -7 -50 -10 -14 -3 -47 -9 -75 -15 -27 -5 -61 -12 -75 -14 -14 -3 -50 -10
-80 -15 -30 -6 -66 -13 -80 -16 -14 -3 -36 -7 -50 -10 -14 -2 -41 -7 -60 -10
-19 -3 -51 -10 -70 -15 -19 -5 -53 -12 -75 -15 -47 -7 -119 -21 -157 -29 l-27
-6 4 277 c2 153 5 296 8 318 18 149 103 345 208 480 56 71 190 194 251 230 60
36 178 94 178 89 0 -4 6 -2 13 4 19 15 157 53 210 57 27 2 51 5 53 8 6 6 218
0 269 -7z"/>
<path d="M6847 4964 c-1 -1 -22 -5 -47 -8 -77 -11 -103 -17 -158 -37 -165 -60
-290 -155 -386 -293 -42 -61 -94 -163 -99 -194 -1 -9 -5 -21 -8 -27 -4 -5 -10
-28 -14 -50 -4 -22 -9 -50 -11 -62 -38 -205 50 -489 199 -643 50 -51 106 -100
117 -100 5 0 10 -4 10 -8 0 -5 12 -15 28 -23 15 -8 29 -17 32 -20 8 -9 151
-66 195 -78 98 -25 255 -29 355 -8 136 29 281 108 381 207 102 101 153 182
195 308 37 109 36 106 40 232 5 233 -77 434 -241 588 -57 54 -155 122 -175
122 -5 0 -10 4 -10 9 0 5 -12 12 -27 16 -16 3 -41 13 -58 20 -27 12 -59 21
-105 31 -46 11 -207 24 -213 18z"/>
</g>
</svg>
