<svg width="48" height="34" viewBox="0 0 48 34" fill="none" xmlns="http://www.w3.org/2000/svg">
<path fill-rule="evenodd" clip-rule="evenodd" d="M3.23734e-07 14.8124C1.44941e-07 6.63173 6.63172 -1.44941e-07 14.8124 -3.23734e-07C22.993 -5.02528e-07 29.6247 6.63171 29.6247 14.8124L29.6247 33.8169L21.2404 33.8169L21.2404 14.8124C21.2404 11.2623 18.3624 8.38435 14.8124 8.38435C11.2623 8.38435 8.38435 11.2623 8.38435 14.8124L8.38436 33.8169L7.39092e-07 33.8169L3.23734e-07 14.8124Z" fill="url(#paint0_linear)"/>
<path fill-rule="evenodd" clip-rule="evenodd" d="M36.8469 20.6055L4.98632 26.754L3.3976 18.5216L35.2581 12.373L36.8469 20.6055Z" fill="url(#paint1_linear)"/>
<circle cx="43.1122" cy="14.8726" r="4.8877" fill="#C4C4C4"/>
<circle cx="43.1122" cy="14.8726" r="4.8877" fill="url(#paint2_linear)"/>
<path d="M45.0424 15.1477C44.9138 14.9675 44.7198 14.8437 44.4602 14.7764C44.7907 14.5937 44.9359 14.2836 44.8961 13.846C44.8827 13.6874 44.8423 13.5498 44.7746 13.4333C44.7069 13.3167 44.6155 13.223 44.5001 13.1521C44.3848 13.0811 44.2594 13.027 44.1242 12.9898C43.9889 12.9525 43.8336 12.9255 43.6584 12.9087V12H43.1461V12.8834C43.0574 12.8834 42.9221 12.8858 42.7403 12.8906V12H42.2279V12.9087C42.1547 12.9111 42.0472 12.9123 41.9053 12.9123L41.2 12.9087V13.5H41.5692C41.7378 13.5 41.8365 13.5818 41.8653 13.7452V14.7801C41.8875 14.7801 41.9053 14.7814 41.9186 14.7838H41.8653V16.2332C41.8476 16.3558 41.7833 16.4171 41.6724 16.4171H41.3032L41.2 17.077H41.8654C41.9075 17.077 41.9685 17.0776 42.0484 17.0787C42.1282 17.0799 42.188 17.0805 42.228 17.0805V18H42.7404V17.0913C42.8335 17.0938 42.9688 17.095 43.1462 17.095V18H43.6585V17.0805C43.8404 17.0709 44.0017 17.053 44.1425 17.0265C44.2834 16.9999 44.4181 16.9585 44.5467 16.902C44.6753 16.8455 44.7829 16.7752 44.8694 16.6911C44.9559 16.607 45.0273 16.5 45.084 16.3701C45.1405 16.2403 45.1766 16.0901 45.192 15.9193C45.221 15.5853 45.1711 15.3281 45.0424 15.1477ZM42.7503 13.5396C42.7658 13.5396 42.8096 13.539 42.8817 13.5378C42.9538 13.5365 43.0136 13.5353 43.0613 13.5341C43.109 13.5329 43.1733 13.536 43.2543 13.5432C43.3353 13.5504 43.4034 13.56 43.4589 13.572C43.5143 13.584 43.5754 13.6038 43.6418 13.6315C43.7084 13.6591 43.7616 13.6928 43.8015 13.7324C43.8414 13.7721 43.8753 13.8226 43.9029 13.8839C43.9307 13.9452 43.9445 14.0155 43.9445 14.0948C43.9445 14.1621 43.9346 14.2235 43.9146 14.2788C43.8947 14.3341 43.8647 14.3803 43.8249 14.4176C43.785 14.4549 43.7439 14.4873 43.7017 14.515C43.6596 14.5426 43.6058 14.5648 43.5404 14.5817C43.475 14.5985 43.4179 14.6117 43.3691 14.6213C43.3203 14.6309 43.2593 14.6376 43.1861 14.6412C43.1129 14.6447 43.0575 14.6472 43.0198 14.6484C42.9821 14.6496 42.9305 14.6496 42.8651 14.6484C42.7996 14.6472 42.7614 14.6466 42.7503 14.6466V13.5396H42.7503V13.5396ZM44.1492 15.9951C44.1281 16.0504 44.101 16.0985 44.0677 16.1394C44.0344 16.1802 43.9906 16.2163 43.9363 16.2475C43.882 16.2788 43.8293 16.304 43.7783 16.3233C43.7272 16.3426 43.6657 16.3593 43.5937 16.3738C43.5215 16.3882 43.4583 16.3984 43.4039 16.4044C43.3496 16.4104 43.2848 16.4152 43.2093 16.4189C43.134 16.4224 43.0752 16.4242 43.033 16.4242C42.9909 16.4242 42.9377 16.4236 42.8733 16.4224C42.809 16.4213 42.768 16.4207 42.7502 16.4207V15.2019C42.768 15.2019 42.8206 15.2007 42.9083 15.1982C42.9959 15.1958 43.0674 15.1947 43.1228 15.1947C43.1783 15.1947 43.2548 15.1982 43.3524 15.2055C43.45 15.2127 43.532 15.2234 43.5986 15.2378C43.6651 15.2523 43.7377 15.2745 43.8165 15.3046C43.8952 15.3346 43.959 15.3713 44.0078 15.4145C44.0566 15.4579 44.0976 15.5131 44.1309 15.5804C44.1642 15.6477 44.1808 15.7246 44.1808 15.8112C44.1808 15.8786 44.1703 15.9398 44.1492 15.9951Z" fill="url(#paint3_linear)"/>
<defs>
<linearGradient id="paint0_linear" x1="0.976476" y1="25.7441" x2="29.8413" y2="25.7441" gradientUnits="userSpaceOnUse">
<stop stop-color="#F94612"/>
<stop offset="1" stop-color="#F98F12"/>
</linearGradient>
<linearGradient id="paint1_linear" x1="4.50014" y1="23.321" x2="37.0914" y2="23.321" gradientUnits="userSpaceOnUse">
<stop stop-color="#F94612"/>
<stop offset="1" stop-color="#F98F12"/>
</linearGradient>
<linearGradient id="paint2_linear" x1="41.3916" y1="17.4267" x2="48.0713" y2="17.4267" gradientUnits="userSpaceOnUse">
<stop stop-color="#F94612"/>
<stop offset="1" stop-color="#F98F12"/>
</linearGradient>
<linearGradient id="paint3_linear" x1="42.496" y1="16.5677" x2="45.2292" y2="16.5677" gradientUnits="userSpaceOnUse">
<stop stop-color="#F98F12"/>
<stop offset="1" stop-color="#F9E212"/>
</linearGradient>
</defs>
</svg>
